<svg width="70" height="70" viewBox="0 0 70 70" fill="none" xmlns="http://www.w3.org/2000/svg">
<rect width="70" height="70" rx="35" fill="#ED174A"/>
<path d="M20.0021 44C19.6821 44 19.3861 43.928 19.1141 43.784C18.8581 43.64 18.7301 43.432 18.7301 43.16V29.816L17.8901 30.872C17.7941 30.952 17.6981 31.016 17.6021 31.064C17.5221 31.096 17.4421 31.112 17.3621 31.112C17.1061 31.112 16.8981 31.008 16.7381 30.8C16.5781 30.576 16.4981 30.336 16.4981 30.08C16.4981 29.888 16.5461 29.704 16.6421 29.528C16.7381 29.352 16.8581 29.208 17.0021 29.096L19.4981 26.696C19.5781 26.616 19.6661 26.552 19.7621 26.504C19.8741 26.456 20.0021 26.432 20.1461 26.432C20.4181 26.432 20.6741 26.504 20.9141 26.648C21.1541 26.792 21.2741 27 21.2741 27.272V43.16C21.2741 43.432 21.1381 43.64 20.8661 43.784C20.6101 43.928 20.3221 44 20.0021 44ZM28.8925 44.144C27.8845 44.144 26.9725 43.984 26.1565 43.664C25.3405 43.328 24.6925 42.8 24.2125 42.08C23.7325 41.344 23.4925 40.384 23.4925 39.2V38.912C23.4925 37.68 23.7485 36.704 24.2605 35.984C24.7885 35.248 25.4605 34.728 26.2765 34.424C25.6045 34.168 25.0605 33.736 24.6445 33.128C24.2445 32.52 24.0445 31.704 24.0445 30.68C24.0445 29.656 24.2525 28.832 24.6685 28.208C25.1005 27.584 25.6765 27.136 26.3965 26.864C27.1325 26.592 27.9645 26.456 28.8925 26.456C29.8365 26.456 30.6685 26.592 31.3885 26.864C32.1245 27.136 32.7005 27.584 33.1165 28.208C33.5485 28.832 33.7645 29.656 33.7645 30.68C33.7645 31.704 33.5565 32.52 33.1405 33.128C32.7245 33.736 32.1885 34.168 31.5325 34.424C32.3645 34.728 33.0285 35.248 33.5245 35.984C34.0205 36.704 34.2685 37.68 34.2685 38.912V39.2C34.2685 40.384 34.0285 41.344 33.5485 42.08C33.0845 42.8 32.4445 43.328 31.6285 43.664C30.8125 43.984 29.9005 44.144 28.8925 44.144ZM28.9165 42.032C29.8125 42.032 30.5085 41.776 31.0045 41.264C31.5005 40.752 31.7485 39.976 31.7485 38.936V38.504C31.7485 37.48 31.4925 36.728 30.9805 36.248C30.4845 35.752 29.7885 35.504 28.8925 35.504C28.0125 35.504 27.3165 35.752 26.8045 36.248C26.2925 36.728 26.0365 37.48 26.0365 38.504V38.936C26.0365 40.008 26.2925 40.792 26.8045 41.288C27.3325 41.784 28.0365 42.032 28.9165 42.032ZM28.8925 33.392C29.6605 33.392 30.2525 33.208 30.6685 32.84C31.1005 32.456 31.3165 31.832 31.3165 30.968C31.3165 30.12 31.1005 29.512 30.6685 29.144C30.2525 28.76 29.6605 28.568 28.8925 28.568C28.1405 28.568 27.5485 28.76 27.1165 29.144C26.7005 29.512 26.4925 30.12 26.4925 30.968C26.4925 31.832 26.7005 32.456 27.1165 32.84C27.5485 33.208 28.1405 33.392 28.8925 33.392ZM40.1076 44.84C39.8356 44.84 39.6116 44.744 39.4356 44.552C39.2596 44.376 39.1716 44.176 39.1716 43.952C39.1716 43.824 39.2036 43.704 39.2676 43.592L48.0996 25.952C48.2276 25.664 48.4596 25.52 48.7956 25.52C49.0356 25.52 49.2596 25.608 49.4676 25.784C49.6916 25.944 49.8036 26.16 49.8036 26.432C49.8036 26.576 49.7796 26.704 49.7316 26.816L40.9236 44.384C40.8596 44.528 40.7476 44.64 40.5876 44.72C40.4436 44.8 40.2836 44.84 40.1076 44.84ZM39.0996 35.912C38.1876 35.912 37.4196 35.688 36.7956 35.24C36.1716 34.792 35.8596 34.032 35.8596 32.96V29.408C35.8596 28.336 36.1716 27.576 36.7956 27.128C37.4196 26.68 38.1876 26.456 39.0996 26.456C39.7236 26.456 40.2756 26.552 40.7556 26.744C41.2516 26.936 41.6436 27.248 41.9316 27.68C42.2196 28.112 42.3636 28.688 42.3636 29.408V32.96C42.3636 33.68 42.2196 34.256 41.9316 34.688C41.6436 35.12 41.2516 35.432 40.7556 35.624C40.2756 35.816 39.7236 35.912 39.0996 35.912ZM39.1236 34.376C39.5876 34.376 39.9556 34.264 40.2276 34.04C40.4996 33.8 40.6356 33.44 40.6356 32.96V29.408C40.6356 28.928 40.4996 28.576 40.2276 28.352C39.9556 28.112 39.5876 27.992 39.1236 27.992C38.6436 27.992 38.2676 28.112 37.9956 28.352C37.7396 28.576 37.6116 28.928 37.6116 29.408V32.96C37.6116 33.44 37.7396 33.8 37.9956 34.04C38.2676 34.264 38.6436 34.376 39.1236 34.376ZM49.7316 44.072C48.8036 44.072 48.0276 43.848 47.4036 43.4C46.7796 42.952 46.4676 42.192 46.4676 41.12V37.568C46.4676 36.496 46.7796 35.736 47.4036 35.288C48.0276 34.84 48.8036 34.616 49.7316 34.616C50.3396 34.616 50.8836 34.712 51.3636 34.904C51.8596 35.096 52.2516 35.408 52.5396 35.84C52.8276 36.272 52.9716 36.848 52.9716 37.568V41.12C52.9716 41.84 52.8276 42.416 52.5396 42.848C52.2516 43.28 51.8596 43.592 51.3636 43.784C50.8836 43.976 50.3396 44.072 49.7316 44.072ZM49.7316 42.536C50.1956 42.536 50.5636 42.424 50.8356 42.2C51.1076 41.96 51.2436 41.6 51.2436 41.12V37.568C51.2436 37.088 51.1076 36.736 50.8356 36.512C50.5636 36.272 50.1956 36.152 49.7316 36.152C49.2676 36.152 48.8996 36.272 48.6276 36.512C48.3716 36.736 48.2436 37.088 48.2436 37.568V41.12C48.2436 41.6 48.3716 41.96 48.6276 42.2C48.8996 42.424 49.2676 42.536 49.7316 42.536Z" fill="white"/>
</svg>
