<svg width="69" height="12" viewBox="0 0 69 12" fill="none" xmlns="http://www.w3.org/2000/svg">
<g clip-path="url(#clip0_239_2137)">
<path d="M9.91 4.93537C9.91 4.79343 9.80032 4.70311 9.58096 4.66439L6.58086 4.21922L5.24533 1.50945C5.16791 1.35461 5.07113 1.27719 4.955 1.27719C4.83887 1.27719 4.74209 1.35461 4.66467 1.50945L3.32914 4.21922L0.329043 4.66439C0.109681 4.70311 0 4.79343 0 4.93537C0 5.0257 0.0516146 5.12247 0.154844 5.2257L2.32266 7.33545L1.80006 10.3162C1.80006 10.3678 1.80006 10.4065 1.80006 10.4323C1.80006 10.5097 1.81941 10.5775 1.85812 10.6356C1.89684 10.6936 1.96135 10.7227 2.05168 10.7227C2.1162 10.7227 2.19362 10.6968 2.28395 10.6452L4.955 9.25164L7.62605 10.6452C7.71638 10.6968 7.7938 10.7227 7.85832 10.7227C7.94865 10.7227 8.01316 10.6936 8.05188 10.6356C8.09059 10.5775 8.10994 10.5097 8.10994 10.4323C8.10994 10.3807 8.10994 10.342 8.10994 10.3162L7.58734 7.33545L9.75516 5.2257C9.85839 5.12247 9.91 5.0257 9.91 4.93537Z" fill="#FFCD00"/>
</g>
<g clip-path="url(#clip1_239_2137)">
<path d="M23.8102 4.93537C23.8102 4.79343 23.7006 4.70311 23.4814 4.66439L20.4844 4.21922L19.1502 1.50945C19.0729 1.35461 18.9762 1.27719 18.8602 1.27719C18.7441 1.27719 18.6475 1.35461 18.5701 1.50945L17.2359 4.21922L14.2389 4.66439C14.0197 4.70311 13.9102 4.79343 13.9102 4.93537C13.9102 5.0257 13.9617 5.12247 14.0648 5.2257L16.2305 7.33545L15.7084 10.3162C15.7084 10.3678 15.7084 10.4065 15.7084 10.4323C15.7084 10.5097 15.7277 10.5775 15.7664 10.6356C15.8051 10.6936 15.8695 10.7227 15.9598 10.7227C16.0242 10.7227 16.1016 10.6968 16.1918 10.6452L18.8602 9.25164L21.5285 10.6452C21.6187 10.6968 21.6961 10.7227 21.7605 10.7227C21.8508 10.7227 21.9152 10.6936 21.9539 10.6356C21.9926 10.5775 22.0119 10.5097 22.0119 10.4323C22.0119 10.3807 22.0119 10.342 22.0119 10.3162L21.4898 7.33545L23.6555 5.2257C23.7586 5.12247 23.8102 5.0257 23.8102 4.93537Z" fill="#FFCD00"/>
</g>
<g clip-path="url(#clip2_239_2137)">
<path d="M37.7196 4.93537C37.7196 4.79343 37.6099 4.70311 37.3905 4.66439L34.3904 4.21922L33.0549 1.50945C32.9775 1.35461 32.8807 1.27719 32.7646 1.27719C32.6484 1.27719 32.5517 1.35461 32.4742 1.50945L31.1387 4.21922L28.1386 4.66439C27.9193 4.70311 27.8096 4.79343 27.8096 4.93537C27.8096 5.0257 27.8612 5.12247 27.9644 5.2257L30.1322 7.33545L29.6096 10.3162C29.6096 10.3678 29.6096 10.4065 29.6096 10.4323C29.6096 10.5097 29.629 10.5775 29.6677 10.6356C29.7064 10.6936 29.7709 10.7227 29.8612 10.7227C29.9258 10.7227 30.0032 10.6968 30.0935 10.6452L32.7646 9.25164L35.4356 10.6452C35.526 10.6968 35.6034 10.7227 35.6679 10.7227C35.7582 10.7227 35.8227 10.6936 35.8614 10.6356C35.9002 10.5775 35.9195 10.5097 35.9195 10.4323C35.9195 10.3807 35.9195 10.342 35.9195 10.3162L35.3969 7.33545L37.5647 5.2257C37.668 5.12247 37.7196 5.0257 37.7196 4.93537Z" fill="#FFCD00"/>
</g>
<g clip-path="url(#clip3_239_2137)">
<path d="M51.6297 4.93537C51.6297 4.79343 51.52 4.70311 51.3007 4.66439L48.3006 4.21922L46.9651 1.50945C46.8876 1.35461 46.7909 1.27719 46.6747 1.27719C46.5586 1.27719 46.4618 1.35461 46.3844 1.50945L45.0489 4.21922L42.0488 4.66439C41.8294 4.70311 41.7197 4.79343 41.7197 4.93537C41.7197 5.0257 41.7713 5.12247 41.8746 5.2257L44.0424 7.33545L43.5198 10.3162C43.5198 10.3678 43.5198 10.4065 43.5198 10.4323C43.5198 10.5097 43.5391 10.5775 43.5779 10.6356C43.6166 10.6936 43.6811 10.7227 43.7714 10.7227C43.8359 10.7227 43.9133 10.6968 44.0037 10.6452L46.6747 9.25164L49.3458 10.6452C49.4361 10.6968 49.5135 10.7227 49.578 10.7227C49.6684 10.7227 49.7329 10.6936 49.7716 10.6356C49.8103 10.5775 49.8297 10.5097 49.8297 10.4323C49.8297 10.3807 49.8297 10.342 49.8297 10.3162L49.3071 7.33545L51.4749 5.2257C51.5781 5.12247 51.6297 5.0257 51.6297 4.93537Z" fill="#FFCD00"/>
</g>
<g clip-path="url(#clip4_239_2137)">
<path d="M65.5299 4.93537C65.5299 4.79343 65.4203 4.70311 65.2012 4.66439L62.2041 4.21922L60.8699 1.50945C60.7926 1.35461 60.6959 1.27719 60.5799 1.27719C60.4639 1.27719 60.3672 1.35461 60.2898 1.50945L58.9557 4.21922L55.9586 4.66439C55.7395 4.70311 55.6299 4.79343 55.6299 4.93537C55.6299 5.0257 55.6814 5.12247 55.7846 5.2257L57.9502 7.33545L57.4281 10.3162C57.4281 10.3678 57.4281 10.4065 57.4281 10.4323C57.4281 10.5097 57.4475 10.5775 57.4861 10.6356C57.5248 10.6936 57.5893 10.7227 57.6795 10.7227C57.7439 10.7227 57.8213 10.6968 57.9115 10.6452L60.5799 9.25164L63.2482 10.6452C63.3385 10.6968 63.4158 10.7227 63.4803 10.7227C63.6479 10.7227 63.7316 10.6259 63.7316 10.4323C63.7316 10.3807 63.7316 10.342 63.7316 10.3162L63.2096 7.33545L65.3752 5.2257C65.4783 5.12247 65.5299 5.0257 65.5299 4.93537ZM62.3975 7.06447L62.8229 9.56133L60.5799 8.38064L58.3369 9.56133L58.7623 7.06447L56.9447 5.30312L59.4584 4.91602L60.5799 2.65143L61.7014 4.91602L64.215 5.30312L62.3975 7.06447Z" fill="#FFCD00"/>
</g>
<defs>
<clipPath id="clip0_239_2137">
<rect width="9.91" height="10" fill="white" transform="matrix(1 0 0 -1 0 11)"/>
</clipPath>
<clipPath id="clip1_239_2137">
<rect width="9.9" height="10" fill="white" transform="matrix(1 0 0 -1 13.9102 11)"/>
</clipPath>
<clipPath id="clip2_239_2137">
<rect width="9.91" height="10" fill="white" transform="matrix(1 0 0 -1 27.8096 11)"/>
</clipPath>
<clipPath id="clip3_239_2137">
<rect width="9.91" height="10" fill="white" transform="matrix(1 0 0 -1 41.7197 11)"/>
</clipPath>
<clipPath id="clip4_239_2137">
<rect width="9.9" height="10" fill="white" transform="matrix(1 0 0 -1 55.6299 11)"/>
</clipPath>
</defs>
</svg>
