<svg width="69" height="12" viewBox="0 0 69 12" fill="none" xmlns="http://www.w3.org/2000/svg">
<g clip-path="url(#clip0_1_2344)">
<path d="M9.91 4.93537C9.91 4.79343 9.80032 4.70311 9.58096 4.66439L6.58086 4.21922L5.24533 1.50945C5.16791 1.35461 5.07113 1.27719 4.955 1.27719C4.83887 1.27719 4.74209 1.35461 4.66467 1.50945L3.32914 4.21922L0.329043 4.66439C0.109681 4.70311 0 4.79343 0 4.93537C0 5.0257 0.0516146 5.12247 0.154844 5.2257L2.32266 7.33545L1.80006 10.3162C1.80006 10.3678 1.80006 10.4065 1.80006 10.4323C1.80006 10.5097 1.81941 10.5775 1.85812 10.6356C1.89684 10.6936 1.96135 10.7227 2.05168 10.7227C2.1162 10.7227 2.19362 10.6968 2.28395 10.6452L4.955 9.25164L7.62605 10.6452C7.71638 10.6968 7.7938 10.7227 7.85832 10.7227C7.94865 10.7227 8.01316 10.6936 8.05188 10.6356C8.09059 10.5775 8.10994 10.5097 8.10994 10.4323C8.10994 10.3807 8.10994 10.342 8.10994 10.3162L7.58734 7.33545L9.75516 5.2257C9.85839 5.12247 9.91 5.0257 9.91 4.93537Z" fill="#FFCD00"/>
</g>
<g clip-path="url(#clip1_1_2344)">
<path d="M23.8102 4.93537C23.8102 4.79343 23.7006 4.70311 23.4814 4.66439L20.4844 4.21922L19.1502 1.50945C19.0729 1.35461 18.9762 1.27719 18.8602 1.27719C18.7441 1.27719 18.6475 1.35461 18.5701 1.50945L17.2359 4.21922L14.2389 4.66439C14.0197 4.70311 13.9102 4.79343 13.9102 4.93537C13.9102 5.0257 13.9617 5.12247 14.0648 5.2257L16.2305 7.33545L15.7084 10.3162C15.7084 10.3678 15.7084 10.4065 15.7084 10.4323C15.7084 10.5097 15.7277 10.5775 15.7664 10.6356C15.8051 10.6936 15.8695 10.7227 15.9598 10.7227C16.0242 10.7227 16.1016 10.6968 16.1918 10.6452L18.8602 9.25164L21.5285 10.6452C21.6187 10.6968 21.6961 10.7227 21.7605 10.7227C21.8508 10.7227 21.9152 10.6936 21.9539 10.6356C21.9926 10.5775 22.0119 10.5097 22.0119 10.4323C22.0119 10.3807 22.0119 10.342 22.0119 10.3162L21.4898 7.33545L23.6555 5.2257C23.7586 5.12247 23.8102 5.0257 23.8102 4.93537Z" fill="#FFCD00"/>
</g>
<g clip-path="url(#clip2_1_2344)">
<path d="M37.7201 4.93537C37.7201 4.79343 37.6104 4.70311 37.391 4.66439L34.3909 4.21922L33.0554 1.50945C32.978 1.35461 32.8812 1.27719 32.7651 1.27719C32.6489 1.27719 32.5521 1.35461 32.4747 1.50945L31.1392 4.21922L28.1391 4.66439C27.9197 4.70311 27.8101 4.79343 27.8101 4.93537C27.8101 5.0257 27.8617 5.12247 27.9649 5.2257L30.1327 7.33545L29.6101 10.3162C29.6101 10.3678 29.6101 10.4065 29.6101 10.4323C29.6101 10.5097 29.6295 10.5775 29.6682 10.6356C29.7069 10.6936 29.7714 10.7227 29.8617 10.7227C29.9263 10.7227 30.0037 10.6968 30.094 10.6452L32.7651 9.25164L35.4361 10.6452C35.5264 10.6968 35.6039 10.7227 35.6684 10.7227C35.7587 10.7227 35.8232 10.6936 35.8619 10.6356C35.9006 10.5775 35.92 10.5097 35.92 10.4323C35.92 10.3807 35.92 10.342 35.92 10.3162L35.3974 7.33545L37.5652 5.2257C37.6684 5.12247 37.7201 5.0257 37.7201 4.93537Z" fill="#FFCD00"/>
</g>
<g clip-path="url(#clip3_1_2344)">
<path d="M51.6302 4.93537C51.6302 4.79343 51.5205 4.70311 51.3012 4.66439L48.3011 4.21922L46.9655 1.50945C46.8881 1.35461 46.7913 1.27719 46.6752 1.27719C46.5591 1.27719 46.4623 1.35461 46.3849 1.50945L45.0494 4.21922L42.0493 4.66439C41.8299 4.70311 41.7202 4.79343 41.7202 4.93537C41.7202 5.0257 41.7718 5.12247 41.8751 5.2257L44.0429 7.33545L43.5203 10.3162C43.5203 10.3678 43.5203 10.4065 43.5203 10.4323C43.5203 10.5097 43.5396 10.5775 43.5783 10.6356C43.6171 10.6936 43.6816 10.7227 43.7719 10.7227C43.8364 10.7227 43.9138 10.6968 44.0042 10.6452L46.6752 9.25164L49.3463 10.6452C49.4366 10.6968 49.514 10.7227 49.5785 10.7227C49.6689 10.7227 49.7334 10.6936 49.7721 10.6356C49.8108 10.5775 49.8302 10.5097 49.8302 10.4323C49.8302 10.3807 49.8302 10.342 49.8302 10.3162L49.3076 7.33545L51.4754 5.2257C51.5786 5.12247 51.6302 5.0257 51.6302 4.93537Z" fill="#FFCD00"/>
</g>
<g clip-path="url(#clip4_1_2344)">
<path d="M65.5299 4.93537C65.5299 4.79343 65.4203 4.70311 65.2012 4.66439L62.2041 4.21922L60.8699 1.50945C60.7926 1.35461 60.6959 1.27719 60.5799 1.27719C60.4639 1.27719 60.3672 1.35461 60.2898 1.50945L58.9557 4.21922L55.9586 4.66439C55.7395 4.70311 55.6299 4.79343 55.6299 4.93537C55.6299 5.0257 55.6814 5.12247 55.7846 5.2257L57.9502 7.33545L57.4281 10.3162C57.4281 10.3678 57.4281 10.4065 57.4281 10.4323C57.4281 10.5097 57.4475 10.5775 57.4861 10.6356C57.5248 10.6936 57.5893 10.7227 57.6795 10.7227C57.7439 10.7227 57.8213 10.6968 57.9115 10.6452L60.5799 9.25164L63.2482 10.6452C63.3385 10.6968 63.4158 10.7227 63.4803 10.7227C63.6479 10.7227 63.7316 10.6259 63.7316 10.4323C63.7316 10.3807 63.7316 10.342 63.7316 10.3162L63.2096 7.33545L65.3752 5.2257C65.4783 5.12247 65.5299 5.0257 65.5299 4.93537ZM62.3975 7.06447L62.8229 9.56133L60.5799 8.38064L58.3369 9.56133L58.7623 7.06447L56.9447 5.30312L59.4584 4.91602L60.5799 2.65143L61.7014 4.91602L64.215 5.30312L62.3975 7.06447Z" fill="#FFCD00"/>
</g>
<defs>
<clipPath id="clip0_1_2344">
<rect width="9.91" height="10" fill="white" transform="matrix(1 0 0 -1 0 11)"/>
</clipPath>
<clipPath id="clip1_1_2344">
<rect width="9.9" height="10" fill="white" transform="matrix(1 0 0 -1 13.9102 11)"/>
</clipPath>
<clipPath id="clip2_1_2344">
<rect width="9.91" height="10" fill="white" transform="matrix(1 0 0 -1 27.8101 11)"/>
</clipPath>
<clipPath id="clip3_1_2344">
<rect width="9.91" height="10" fill="white" transform="matrix(1 0 0 -1 41.7202 11)"/>
</clipPath>
<clipPath id="clip4_1_2344">
<rect width="9.9" height="10" fill="white" transform="matrix(1 0 0 -1 55.6299 11)"/>
</clipPath>
</defs>
</svg>
