<svg width="1170" height="64" viewBox="0 0 1170 64" fill="none" xmlns="http://www.w3.org/2000/svg">
<rect width="1170" height="64" rx="7" fill="#FBEACF"/>
<path d="M328.832 29.7102C328.787 29.2519 328.592 28.8958 328.247 28.642C327.902 28.3883 327.434 28.2614 326.843 28.2614C326.442 28.2614 326.103 28.3182 325.826 28.4318C325.55 28.5417 325.338 28.6951 325.19 28.892C325.046 29.089 324.974 29.3125 324.974 29.5625C324.967 29.7708 325.01 29.9527 325.105 30.108C325.203 30.2633 325.338 30.3977 325.508 30.5114C325.679 30.6212 325.876 30.7178 326.099 30.8011C326.323 30.8807 326.561 30.9489 326.815 31.0057L327.861 31.2557C328.368 31.3693 328.834 31.5208 329.258 31.7102C329.683 31.8996 330.05 32.1326 330.361 32.4091C330.671 32.6856 330.912 33.0114 331.082 33.3864C331.256 33.7614 331.345 34.1913 331.349 34.6761C331.345 35.3883 331.164 36.0057 330.804 36.5284C330.448 37.0473 329.933 37.4508 329.258 37.7386C328.588 38.0227 327.779 38.1648 326.832 38.1648C325.893 38.1648 325.075 38.0208 324.378 37.733C323.684 37.4451 323.143 37.0189 322.753 36.4545C322.366 35.8864 322.164 35.1837 322.145 34.3466H324.525C324.552 34.7367 324.664 35.0625 324.861 35.3239C325.061 35.5814 325.328 35.7765 325.662 35.9091C325.999 36.0379 326.379 36.1023 326.804 36.1023C327.22 36.1023 327.582 36.0417 327.889 35.9205C328.2 35.7992 328.44 35.6307 328.611 35.4148C328.781 35.1989 328.866 34.9508 328.866 34.6705C328.866 34.4091 328.789 34.1894 328.633 34.0114C328.482 33.8333 328.258 33.6818 327.963 33.5568C327.671 33.4318 327.313 33.3182 326.889 33.2159L325.622 32.8977C324.641 32.6591 323.866 32.286 323.298 31.7784C322.73 31.2708 322.448 30.5871 322.451 29.7273C322.448 29.0227 322.635 28.4072 323.014 27.8807C323.397 27.3542 323.921 26.9432 324.588 26.6477C325.254 26.3523 326.012 26.2045 326.861 26.2045C327.724 26.2045 328.478 26.3523 329.122 26.6477C329.77 26.9432 330.273 27.3542 330.633 27.8807C330.993 28.4072 331.179 29.017 331.19 29.7102H328.832ZM344.192 26.3636H346.652V33.9205C346.652 34.7689 346.449 35.5114 346.044 36.1477C345.642 36.7841 345.08 37.2803 344.356 37.6364C343.633 37.9886 342.79 38.1648 341.828 38.1648C340.862 38.1648 340.017 37.9886 339.294 37.6364C338.57 37.2803 338.008 36.7841 337.606 36.1477C337.205 35.5114 337.004 34.7689 337.004 33.9205V26.3636H339.464V33.7102C339.464 34.1534 339.561 34.5473 339.754 34.892C339.951 35.2367 340.227 35.5076 340.584 35.7045C340.94 35.9015 341.354 36 341.828 36C342.305 36 342.72 35.9015 343.072 35.7045C343.428 35.5076 343.703 35.2367 343.896 34.892C344.093 34.5473 344.192 34.1534 344.192 33.7102V26.3636ZM352.676 38V26.3636H357.267C358.149 26.3636 358.901 26.5322 359.522 26.8693C360.144 27.2027 360.617 27.6667 360.943 28.2614C361.272 28.8523 361.437 29.5341 361.437 30.3068C361.437 31.0795 361.271 31.7614 360.937 32.3523C360.604 32.9432 360.121 33.4034 359.488 33.733C358.86 34.0625 358.098 34.2273 357.204 34.2273H354.278V32.2557H356.807C357.28 32.2557 357.67 32.1742 357.977 32.0114C358.288 31.8447 358.519 31.6155 358.67 31.3239C358.826 31.0284 358.903 30.6894 358.903 30.3068C358.903 29.9205 358.826 29.5833 358.67 29.2955C358.519 29.0038 358.288 28.7784 357.977 28.6193C357.666 28.4564 357.272 28.375 356.795 28.375H355.136V38H352.676ZM367.035 38V26.3636H374.876V28.392H369.495V31.1648H374.473V33.1932H369.495V35.9716H374.899V38H367.035ZM380.832 38V26.3636H385.423C386.302 26.3636 387.052 26.5208 387.673 26.8352C388.298 27.1458 388.773 27.5871 389.099 28.1591C389.429 28.7273 389.593 29.3958 389.593 30.1648C389.593 30.9375 389.427 31.6023 389.093 32.1591C388.76 32.7121 388.277 33.1364 387.645 33.4318C387.016 33.7273 386.254 33.875 385.361 33.875H382.287V31.8977H384.963C385.433 31.8977 385.823 31.8333 386.133 31.7045C386.444 31.5758 386.675 31.3826 386.826 31.125C386.982 30.8674 387.059 30.5473 387.059 30.1648C387.059 29.7784 386.982 29.4527 386.826 29.1875C386.675 28.9223 386.442 28.7216 386.128 28.5852C385.817 28.4451 385.425 28.375 384.951 28.375H383.292V38H380.832ZM387.116 32.7045L390.008 38H387.292L384.463 32.7045H387.116ZM407.16 38H403.035V26.3636H407.194C408.365 26.3636 409.372 26.5966 410.217 27.0625C411.062 27.5246 411.711 28.1894 412.166 29.0568C412.624 29.9242 412.853 30.9621 412.853 32.1705C412.853 33.3826 412.624 34.4242 412.166 35.2955C411.711 36.1667 411.058 36.8352 410.206 37.3011C409.357 37.767 408.342 38 407.16 38ZM405.495 35.892H407.058C407.785 35.892 408.397 35.7633 408.893 35.5057C409.393 35.2443 409.768 34.8409 410.018 34.2955C410.272 33.7462 410.399 33.0379 410.399 32.1705C410.399 31.3106 410.272 30.608 410.018 30.0625C409.768 29.517 409.395 29.1155 408.899 28.858C408.403 28.6004 407.791 28.4716 407.064 28.4716H405.495V35.892ZM421.136 26.3636V38H418.676V26.3636H421.136ZM433.473 29.7102C433.427 29.2519 433.232 28.8958 432.888 28.642C432.543 28.3883 432.075 28.2614 431.484 28.2614C431.083 28.2614 430.744 28.3182 430.467 28.4318C430.191 28.5417 429.978 28.6951 429.831 28.892C429.687 29.089 429.615 29.3125 429.615 29.5625C429.607 29.7708 429.651 29.9527 429.745 30.108C429.844 30.2633 429.978 30.3977 430.149 30.5114C430.319 30.6212 430.516 30.7178 430.74 30.8011C430.963 30.8807 431.202 30.9489 431.456 31.0057L432.501 31.2557C433.009 31.3693 433.475 31.5208 433.899 31.7102C434.323 31.8996 434.691 32.1326 435.001 32.4091C435.312 32.6856 435.552 33.0114 435.723 33.3864C435.897 33.7614 435.986 34.1913 435.99 34.6761C435.986 35.3883 435.804 36.0057 435.444 36.5284C435.088 37.0473 434.573 37.4508 433.899 37.7386C433.228 38.0227 432.42 38.1648 431.473 38.1648C430.533 38.1648 429.715 38.0208 429.018 37.733C428.325 37.4451 427.783 37.0189 427.393 36.4545C427.007 35.8864 426.804 35.1837 426.785 34.3466H429.166C429.192 34.7367 429.304 35.0625 429.501 35.3239C429.702 35.5814 429.969 35.7765 430.302 35.9091C430.639 36.0379 431.02 36.1023 431.444 36.1023C431.861 36.1023 432.223 36.0417 432.53 35.9205C432.84 35.7992 433.081 35.6307 433.251 35.4148C433.422 35.1989 433.507 34.9508 433.507 34.6705C433.507 34.4091 433.429 34.1894 433.274 34.0114C433.122 33.8333 432.899 33.6818 432.603 33.5568C432.312 33.4318 431.954 33.3182 431.53 33.2159L430.263 32.8977C429.281 32.6591 428.507 32.286 427.939 31.7784C427.37 31.2708 427.088 30.5871 427.092 29.7273C427.088 29.0227 427.276 28.4072 427.655 27.8807C428.037 27.3542 428.562 26.9432 429.228 26.6477C429.895 26.3523 430.653 26.2045 431.501 26.2045C432.365 26.2045 433.119 26.3523 433.763 26.6477C434.41 26.9432 434.914 27.3542 435.274 27.8807C435.634 28.4072 435.819 29.017 435.831 29.7102H433.473ZM451.912 30.4375H449.423C449.378 30.1155 449.285 29.8295 449.145 29.5795C449.004 29.3258 448.825 29.1098 448.605 28.9318C448.385 28.7538 448.131 28.6174 447.843 28.5227C447.559 28.428 447.251 28.3807 446.917 28.3807C446.315 28.3807 445.79 28.5303 445.343 28.8295C444.897 29.125 444.55 29.5568 444.304 30.125C444.058 30.6894 443.934 31.375 443.934 32.1818C443.934 33.0114 444.058 33.7083 444.304 34.2727C444.554 34.8371 444.902 35.2633 445.349 35.5511C445.796 35.839 446.313 35.983 446.9 35.983C447.23 35.983 447.535 35.9394 447.815 35.8523C448.099 35.7652 448.351 35.6383 448.571 35.4716C448.79 35.3011 448.972 35.0947 449.116 34.8523C449.264 34.6098 449.366 34.3333 449.423 34.0227L451.912 34.0341C451.847 34.5682 451.686 35.0833 451.429 35.5795C451.175 36.072 450.832 36.5133 450.4 36.9034C449.972 37.2898 449.461 37.5966 448.866 37.8239C448.275 38.0473 447.607 38.1591 446.861 38.1591C445.823 38.1591 444.895 37.9242 444.076 37.4545C443.262 36.9848 442.618 36.3049 442.145 35.4148C441.675 34.5246 441.44 33.447 441.44 32.1818C441.44 30.9129 441.679 29.8333 442.156 28.9432C442.633 28.053 443.281 27.375 444.099 26.9091C444.917 26.4394 445.838 26.2045 446.861 26.2045C447.535 26.2045 448.16 26.2992 448.736 26.4886C449.315 26.678 449.828 26.9545 450.275 27.3182C450.722 27.678 451.086 28.1193 451.366 28.642C451.65 29.1648 451.832 29.7633 451.912 30.4375ZM468.369 32.1818C468.369 33.4508 468.129 34.5303 467.647 35.4205C467.17 36.3106 466.519 36.9905 465.693 37.4602C464.871 37.9261 463.947 38.1591 462.92 38.1591C461.886 38.1591 460.958 37.9242 460.136 37.4545C459.314 36.9848 458.665 36.3049 458.187 35.4148C457.71 34.5246 457.471 33.447 457.471 32.1818C457.471 30.9129 457.71 29.8333 458.187 28.9432C458.665 28.053 459.314 27.375 460.136 26.9091C460.958 26.4394 461.886 26.2045 462.92 26.2045C463.947 26.2045 464.871 26.4394 465.693 26.9091C466.519 27.375 467.17 28.053 467.647 28.9432C468.129 29.8333 468.369 30.9129 468.369 32.1818ZM465.875 32.1818C465.875 31.3598 465.752 30.6667 465.505 30.1023C465.263 29.5379 464.92 29.1098 464.477 28.8182C464.034 28.5265 463.515 28.3807 462.92 28.3807C462.326 28.3807 461.807 28.5265 461.363 28.8182C460.92 29.1098 460.576 29.5379 460.329 30.1023C460.087 30.6667 459.966 31.3598 459.966 32.1818C459.966 33.0038 460.087 33.697 460.329 34.2614C460.576 34.8258 460.92 35.2538 461.363 35.5455C461.807 35.8371 462.326 35.983 462.92 35.983C463.515 35.983 464.034 35.8371 464.477 35.5455C464.92 35.2538 465.263 34.8258 465.505 34.2614C465.752 33.697 465.875 33.0038 465.875 32.1818ZM481.379 26.3636H483.839V33.9205C483.839 34.7689 483.637 35.5114 483.231 36.1477C482.83 36.7841 482.267 37.2803 481.544 37.6364C480.82 37.9886 479.977 38.1648 479.015 38.1648C478.049 38.1648 477.205 37.9886 476.481 37.6364C475.758 37.2803 475.195 36.7841 474.794 36.1477C474.392 35.5114 474.192 34.7689 474.192 33.9205V26.3636H476.652V33.7102C476.652 34.1534 476.748 34.5473 476.942 34.892C477.138 35.2367 477.415 35.5076 477.771 35.7045C478.127 35.9015 478.542 36 479.015 36C479.493 36 479.907 35.9015 480.26 35.7045C480.616 35.5076 480.89 35.2367 481.084 34.892C481.281 34.5473 481.379 34.1534 481.379 33.7102V26.3636ZM499.596 26.3636V38H497.471L492.409 30.6761H492.324V38H489.863V26.3636H492.022L497.045 33.6818H497.147V26.3636H499.596ZM505.186 28.392V26.3636H514.743V28.392H511.18V38H508.748V28.392H505.186ZM528.02 38V26.3636H535.724V28.392H530.48V31.1648H535.213V33.1932H530.48V38H528.02ZM552.072 32.1818C552.072 33.4508 551.832 34.5303 551.351 35.4205C550.873 36.3106 550.222 36.9905 549.396 37.4602C548.574 37.9261 547.65 38.1591 546.623 38.1591C545.589 38.1591 544.661 37.9242 543.839 37.4545C543.017 36.9848 542.368 36.3049 541.89 35.4148C541.413 34.5246 541.174 33.447 541.174 32.1818C541.174 30.9129 541.413 29.8333 541.89 28.9432C542.368 28.053 543.017 27.375 543.839 26.9091C544.661 26.4394 545.589 26.2045 546.623 26.2045C547.65 26.2045 548.574 26.4394 549.396 26.9091C550.222 27.375 550.873 28.053 551.351 28.9432C551.832 29.8333 552.072 30.9129 552.072 32.1818ZM549.578 32.1818C549.578 31.3598 549.455 30.6667 549.209 30.1023C548.966 29.5379 548.623 29.1098 548.18 28.8182C547.737 28.5265 547.218 28.3807 546.623 28.3807C546.029 28.3807 545.51 28.5265 545.067 28.8182C544.623 29.1098 544.279 29.5379 544.032 30.1023C543.79 30.6667 543.669 31.3598 543.669 32.1818C543.669 33.0038 543.79 33.697 544.032 34.2614C544.279 34.8258 544.623 35.2538 545.067 35.5455C545.51 35.8371 546.029 35.983 546.623 35.983C547.218 35.983 547.737 35.8371 548.18 35.5455C548.623 35.2538 548.966 34.8258 549.209 34.2614C549.455 33.697 549.578 33.0038 549.578 32.1818ZM557.895 38V26.3636H562.486C563.364 26.3636 564.114 26.5208 564.736 26.8352C565.361 27.1458 565.836 27.5871 566.162 28.1591C566.491 28.7273 566.656 29.3958 566.656 30.1648C566.656 30.9375 566.489 31.6023 566.156 32.1591C565.823 32.7121 565.34 33.1364 564.707 33.4318C564.078 33.7273 563.317 33.875 562.423 33.875H559.349V31.8977H562.025C562.495 31.8977 562.885 31.8333 563.196 31.7045C563.506 31.5758 563.737 31.3826 563.889 31.125C564.044 30.8674 564.122 30.5473 564.122 30.1648C564.122 29.7784 564.044 29.4527 563.889 29.1875C563.737 28.9223 563.504 28.7216 563.19 28.5852C562.879 28.4451 562.487 28.375 562.014 28.375H560.355V38H557.895ZM564.179 32.7045L567.071 38H564.355L561.525 32.7045H564.179ZM579.416 26.3636H582.172L584.825 31.375H584.939L587.592 26.3636H590.348L586.103 33.8864V38H583.66V33.8864L579.416 26.3636ZM605.682 32.1818C605.682 33.4508 605.441 34.5303 604.96 35.4205C604.483 36.3106 603.831 36.9905 603.005 37.4602C602.183 37.9261 601.259 38.1591 600.233 38.1591C599.199 38.1591 598.271 37.9242 597.449 37.4545C596.627 36.9848 595.977 36.3049 595.5 35.4148C595.022 34.5246 594.784 33.447 594.784 32.1818C594.784 30.9129 595.022 29.8333 595.5 28.9432C595.977 28.053 596.627 27.375 597.449 26.9091C598.271 26.4394 599.199 26.2045 600.233 26.2045C601.259 26.2045 602.183 26.4394 603.005 26.9091C603.831 27.375 604.483 28.053 604.96 28.9432C605.441 29.8333 605.682 30.9129 605.682 32.1818ZM603.187 32.1818C603.187 31.3598 603.064 30.6667 602.818 30.1023C602.576 29.5379 602.233 29.1098 601.79 28.8182C601.346 28.5265 600.827 28.3807 600.233 28.3807C599.638 28.3807 599.119 28.5265 598.676 28.8182C598.233 29.1098 597.888 29.5379 597.642 30.1023C597.399 30.6667 597.278 31.3598 597.278 32.1818C597.278 33.0038 597.399 33.697 597.642 34.2614C597.888 34.8258 598.233 35.2538 598.676 35.5455C599.119 35.8371 599.638 35.983 600.233 35.983C600.827 35.983 601.346 35.8371 601.79 35.5455C602.233 35.2538 602.576 34.8258 602.818 34.2614C603.064 33.697 603.187 33.0038 603.187 32.1818ZM618.692 26.3636H621.152V33.9205C621.152 34.7689 620.949 35.5114 620.544 36.1477C620.142 36.7841 619.58 37.2803 618.856 37.6364C618.133 37.9886 617.29 38.1648 616.328 38.1648C615.362 38.1648 614.517 37.9886 613.794 37.6364C613.07 37.2803 612.508 36.7841 612.106 36.1477C611.705 35.5114 611.504 34.7689 611.504 33.9205V26.3636H613.964V33.7102C613.964 34.1534 614.061 34.5473 614.254 34.892C614.451 35.2367 614.727 35.5076 615.084 35.7045C615.44 35.9015 615.854 36 616.328 36C616.805 36 617.22 35.9015 617.572 35.7045C617.928 35.5076 618.203 35.2367 618.396 34.892C618.593 34.5473 618.692 34.1534 618.692 33.7102V26.3636ZM627.176 38V26.3636H631.767C632.646 26.3636 633.396 26.5208 634.017 26.8352C634.642 27.1458 635.117 27.5871 635.443 28.1591C635.772 28.7273 635.937 29.3958 635.937 30.1648C635.937 30.9375 635.771 31.6023 635.437 32.1591C635.104 32.7121 634.621 33.1364 633.988 33.4318C633.36 33.7273 632.598 33.875 631.704 33.875H628.63V31.8977H631.307C631.776 31.8977 632.166 31.8333 632.477 31.7045C632.788 31.5758 633.019 31.3826 633.17 31.125C633.326 30.8674 633.403 30.5473 633.403 30.1648C633.403 29.7784 633.326 29.4527 633.17 29.1875C633.019 28.9223 632.786 28.7216 632.471 28.5852C632.161 28.4451 631.769 28.375 631.295 28.375H629.636V38H627.176ZM633.46 32.7045L636.352 38H633.636L630.807 32.7045H633.46ZM649.118 38V26.3636H657.299V28.9091H652.277V30.9091H656.799V33.4545H652.277V38H649.118ZM665.62 26.3636V38H662.461V26.3636H665.62ZM671.118 38V26.3636H676.14C677.004 26.3636 677.76 26.5208 678.407 26.8352C679.055 27.1496 679.559 27.6023 679.919 28.1932C680.279 28.7841 680.459 29.4924 680.459 30.3182C680.459 31.1515 680.273 31.8542 679.902 32.4261C679.534 32.9981 679.017 33.4299 678.351 33.7216C677.688 34.0133 676.913 34.1591 676.027 34.1591H673.027V31.7045H675.39C675.762 31.7045 676.078 31.6591 676.339 31.5682C676.604 31.4735 676.807 31.3239 676.947 31.1193C677.091 30.9148 677.163 30.6477 677.163 30.3182C677.163 29.9848 677.091 29.714 676.947 29.5057C676.807 29.2936 676.604 29.1383 676.339 29.0398C676.078 28.9375 675.762 28.8864 675.39 28.8864H674.277V38H671.118ZM677.936 32.6591L680.845 38H677.413L674.572 32.6591H677.936ZM692.078 30C692.048 29.6212 691.906 29.3258 691.652 29.1136C691.402 28.9015 691.021 28.7955 690.51 28.7955C690.184 28.7955 689.917 28.8352 689.709 28.9148C689.504 28.9905 689.352 29.0947 689.254 29.2273C689.156 29.3598 689.104 29.5114 689.101 29.6818C689.093 29.822 689.118 29.9489 689.174 30.0625C689.235 30.1723 689.33 30.2727 689.459 30.3636C689.587 30.4508 689.752 30.5303 689.953 30.6023C690.154 30.6742 690.392 30.7386 690.669 30.7955L691.623 31C692.267 31.1364 692.818 31.3163 693.277 31.5398C693.735 31.7633 694.11 32.0265 694.402 32.3295C694.693 32.6288 694.907 32.9659 695.044 33.3409C695.184 33.7159 695.256 34.125 695.26 34.5682C695.256 35.3333 695.065 35.9811 694.686 36.5114C694.307 37.0417 693.765 37.4451 693.061 37.7216C692.36 37.9981 691.517 38.1364 690.532 38.1364C689.521 38.1364 688.638 37.9867 687.885 37.6875C687.135 37.3883 686.551 36.928 686.135 36.3068C685.722 35.6818 685.513 34.8826 685.51 33.9091H688.51C688.529 34.2652 688.618 34.5644 688.777 34.8068C688.936 35.0492 689.159 35.233 689.447 35.358C689.739 35.483 690.085 35.5455 690.487 35.5455C690.824 35.5455 691.106 35.5038 691.334 35.4205C691.561 35.3371 691.733 35.2216 691.851 35.0739C691.968 34.9261 692.029 34.7576 692.032 34.5682C692.029 34.3902 691.97 34.2348 691.856 34.1023C691.746 33.9659 691.565 33.8447 691.311 33.7386C691.057 33.6288 690.714 33.5265 690.282 33.4318L689.123 33.1818C688.093 32.9583 687.281 32.5852 686.686 32.0625C686.095 31.536 685.801 30.8182 685.805 29.9091C685.801 29.1705 685.998 28.5246 686.396 27.9716C686.798 27.4148 687.352 26.9811 688.061 26.6705C688.773 26.3598 689.589 26.2045 690.51 26.2045C691.449 26.2045 692.262 26.3617 692.947 26.6761C693.633 26.9905 694.161 27.4337 694.532 28.0057C694.907 28.5739 695.097 29.2386 695.101 30H692.078ZM700.143 28.9091V26.3636H710.257V28.9091H706.757V38H703.643V28.9091H700.143ZM722.633 38V26.3636H727.656C728.52 26.3636 729.275 26.5341 729.923 26.875C730.571 27.2159 731.075 27.6951 731.434 28.3125C731.794 28.9299 731.974 29.6515 731.974 30.4773C731.974 31.3106 731.789 32.0322 731.417 32.642C731.05 33.2519 730.533 33.7216 729.866 34.0511C729.203 34.3807 728.429 34.5455 727.542 34.5455H724.542V32.0909H726.906C727.277 32.0909 727.593 32.0265 727.855 31.8977C728.12 31.7652 728.323 31.5777 728.463 31.3352C728.607 31.0928 728.679 30.8068 728.679 30.4773C728.679 30.1439 728.607 29.8598 728.463 29.625C728.323 29.3864 728.12 29.2045 727.855 29.0795C727.593 28.9508 727.277 28.8864 726.906 28.8864H725.792V38H722.633ZM744.02 26.3636H747.179V33.8182C747.179 34.7045 746.967 35.4716 746.542 36.1193C746.122 36.7633 745.535 37.2614 744.781 37.6136C744.027 37.9621 743.152 38.1364 742.156 38.1364C741.152 38.1364 740.273 37.9621 739.52 37.6136C738.766 37.2614 738.179 36.7633 737.758 36.1193C737.342 35.4716 737.133 34.7045 737.133 33.8182V26.3636H740.292V33.5455C740.292 33.9053 740.372 34.2273 740.531 34.5114C740.69 34.7917 740.91 35.0114 741.19 35.1705C741.474 35.3295 741.796 35.4091 742.156 35.4091C742.52 35.4091 742.842 35.3295 743.122 35.1705C743.402 35.0114 743.622 34.7917 743.781 34.5114C743.94 34.2273 744.02 33.9053 744.02 33.5455V26.3636ZM752.68 38V26.3636H757.703C758.567 26.3636 759.322 26.5208 759.97 26.8352C760.618 27.1496 761.121 27.6023 761.481 28.1932C761.841 28.7841 762.021 29.4924 762.021 30.3182C762.021 31.1515 761.835 31.8542 761.464 32.4261C761.097 32.9981 760.58 33.4299 759.913 33.7216C759.25 34.0133 758.476 34.1591 757.589 34.1591H754.589V31.7045H756.953C757.324 31.7045 757.64 31.6591 757.902 31.5682C758.167 31.4735 758.37 31.3239 758.51 31.1193C758.654 30.9148 758.726 30.6477 758.726 30.3182C758.726 29.9848 758.654 29.714 758.51 29.5057C758.37 29.2936 758.167 29.1383 757.902 29.0398C757.64 28.9375 757.324 28.8864 756.953 28.8864H755.839V38H752.68ZM759.498 32.6591L762.407 38H758.976L756.135 32.6591H759.498ZM778.231 30.7273H775.027C775.004 30.4621 774.943 30.2216 774.845 30.0057C774.75 29.7898 774.618 29.6042 774.447 29.4489C774.281 29.2898 774.078 29.1686 773.839 29.0852C773.601 28.9981 773.33 28.9545 773.027 28.9545C772.496 28.9545 772.048 29.0833 771.68 29.3409C771.317 29.5985 771.04 29.9678 770.851 30.4489C770.665 30.9299 770.572 31.5076 770.572 32.1818C770.572 32.8939 770.667 33.4905 770.856 33.9716C771.049 34.4489 771.328 34.8087 771.692 35.0511C772.055 35.2898 772.493 35.4091 773.004 35.4091C773.296 35.4091 773.557 35.3731 773.788 35.3011C774.019 35.2254 774.22 35.1174 774.39 34.9773C774.561 34.8371 774.699 34.6686 774.805 34.4716C774.915 34.2708 774.989 34.0455 775.027 33.7955L778.231 33.8182C778.193 34.3106 778.055 34.8125 777.817 35.3239C777.578 35.8314 777.239 36.3011 776.799 36.733C776.364 37.161 775.824 37.5057 775.18 37.767C774.536 38.0284 773.788 38.1591 772.936 38.1591C771.868 38.1591 770.909 37.9299 770.061 37.4716C769.216 37.0133 768.548 36.339 768.055 35.4489C767.567 34.5587 767.322 33.4697 767.322 32.1818C767.322 30.8864 767.572 29.7955 768.072 28.9091C768.572 28.0189 769.246 27.3466 770.095 26.892C770.943 26.4337 771.89 26.2045 772.936 26.2045C773.671 26.2045 774.347 26.3049 774.964 26.5057C775.582 26.7064 776.123 27 776.589 27.3864C777.055 27.7689 777.43 28.2405 777.714 28.8011C777.998 29.3617 778.171 30.0038 778.231 30.7273ZM783.665 38V26.3636H786.824V30.9091H791.005V26.3636H794.165V38H791.005V33.4545H786.824V38H783.665ZM802.687 38H799.278L803.119 26.3636H807.437L811.278 38H807.869L805.324 29.5682H805.233L802.687 38ZM802.051 33.4091H808.46V35.7727H802.051V33.4091ZM822.218 30C822.188 29.6212 822.046 29.3258 821.792 29.1136C821.542 28.9015 821.162 28.7955 820.65 28.7955C820.325 28.7955 820.058 28.8352 819.849 28.9148C819.645 28.9905 819.493 29.0947 819.395 29.2273C819.296 29.3598 819.245 29.5114 819.241 29.6818C819.234 29.822 819.258 29.9489 819.315 30.0625C819.376 30.1723 819.47 30.2727 819.599 30.3636C819.728 30.4508 819.893 30.5303 820.093 30.6023C820.294 30.6742 820.533 30.7386 820.809 30.7955L821.764 31C822.408 31.1364 822.959 31.3163 823.417 31.5398C823.876 31.7633 824.251 32.0265 824.542 32.3295C824.834 32.6288 825.048 32.9659 825.184 33.3409C825.325 33.7159 825.397 34.125 825.4 34.5682C825.397 35.3333 825.205 35.9811 824.826 36.5114C824.448 37.0417 823.906 37.4451 823.201 37.7216C822.501 37.9981 821.658 38.1364 820.673 38.1364C819.662 38.1364 818.779 37.9867 818.025 37.6875C817.275 37.3883 816.692 36.928 816.275 36.3068C815.862 35.6818 815.654 34.8826 815.65 33.9091H818.65C818.669 34.2652 818.758 34.5644 818.917 34.8068C819.076 35.0492 819.3 35.233 819.588 35.358C819.879 35.483 820.226 35.5455 820.628 35.5455C820.965 35.5455 821.247 35.5038 821.474 35.4205C821.701 35.3371 821.874 35.2216 821.991 35.0739C822.109 34.9261 822.169 34.7576 822.173 34.5682C822.169 34.3902 822.111 34.2348 821.997 34.1023C821.887 33.9659 821.705 33.8447 821.451 33.7386C821.198 33.6288 820.855 33.5265 820.423 33.4318L819.264 33.1818C818.234 32.9583 817.421 32.5852 816.826 32.0625C816.236 31.536 815.942 30.8182 815.946 29.9091C815.942 29.1705 816.139 28.5246 816.537 27.9716C816.938 27.4148 817.493 26.9811 818.201 26.6705C818.914 26.3598 819.73 26.2045 820.65 26.2045C821.59 26.2045 822.402 26.3617 823.088 26.6761C823.773 26.9905 824.302 27.4337 824.673 28.0057C825.048 28.5739 825.237 29.2386 825.241 30H822.218ZM830.602 38V26.3636H838.988V28.9091H833.761V30.9091H838.557V33.4545H833.761V35.4545H838.966V38H830.602ZM846.305 38.1818C845.866 38.1818 845.489 38.0284 845.174 37.7216C844.864 37.411 844.71 37.0341 844.714 36.5909C844.71 36.1591 844.864 35.7898 845.174 35.483C845.489 35.1761 845.866 35.0227 846.305 35.0227C846.722 35.0227 847.089 35.1761 847.407 35.483C847.729 35.7898 847.892 36.1591 847.896 36.5909C847.892 36.8864 847.815 37.1553 847.663 37.3977C847.515 37.6364 847.322 37.8277 847.084 37.9716C846.845 38.1117 846.585 38.1818 846.305 38.1818Z" fill="#202435"/>
</svg>
