<svg width="42" height="42" viewBox="0 0 42 42" fill="none" xmlns="http://www.w3.org/2000/svg">
<rect width="42" height="42" rx="21" fill="#FFF1EE"/>
<g clip-path="url(#clip0_1_1967)">
<path d="M21.034 13.911C20.524 13.911 20.0508 14.0385 19.6145 14.2935C19.1782 14.5485 18.8325 14.8942 18.5775 15.3305C18.3225 15.7668 18.195 16.24 18.195 16.75H16.75C16.75 15.9793 16.9398 15.2682 17.3195 14.6165C17.6992 13.9648 18.2148 13.4492 18.8665 13.0695C19.5182 12.6898 20.2293 12.5 21 12.5C21.7707 12.5 22.4818 12.6898 23.1335 13.0695C23.7852 13.4492 24.3008 13.9648 24.6805 14.6165C25.0602 15.2682 25.25 15.9793 25.25 16.75H28.038C28.446 16.75 28.7917 16.8945 29.075 17.1835C29.3583 17.4725 29.5 17.8267 29.5 18.246C29.5 18.3367 29.4943 18.4217 29.483 18.501L27.902 27.647C27.8113 28.1797 27.562 28.6217 27.154 28.973C26.746 29.3243 26.2757 29.5 25.743 29.5H16.257C15.7243 29.5 15.254 29.3243 14.846 28.973C14.438 28.6217 14.1887 28.1797 14.098 27.647L12.517 18.518C12.449 18.11 12.5312 17.736 12.7635 17.396C12.9958 17.056 13.3103 16.8463 13.707 16.767C13.7863 16.7557 13.8713 16.75 13.962 16.75H23.873C23.873 16.24 23.7455 15.7668 23.4905 15.3305C23.2355 14.8942 22.8898 14.5485 22.4535 14.2935C22.0172 14.0385 21.544 13.911 21.034 13.911ZM28.038 18.161H13.962C13.9507 18.161 13.9337 18.1837 13.911 18.229V18.263L15.492 27.409C15.526 27.5903 15.6053 27.7433 15.73 27.868C15.8547 27.9927 16.002 28.0607 16.172 28.072L16.257 28.089H25.743C25.913 28.089 26.0688 28.0352 26.2105 27.9275C26.3522 27.8198 26.4457 27.6753 26.491 27.494L28.089 18.246C28.089 18.2007 28.0777 18.178 28.055 18.178L28.038 18.161Z" fill="#EA2B0F"/>
</g>
<defs>
<clipPath id="clip0_1_1967">
<rect width="17" height="17" fill="white" transform="matrix(1 0 0 -1 12.5 29.5)"/>
</clipPath>
</defs>
</svg>
