<svg width="24" height="60" viewBox="0 0 24 60" fill="none" xmlns="http://www.w3.org/2000/svg">
<path d="M21.6959 38.304L17.9999 34.608C18.6239 33.824 19.1039 32.96 19.4399 32.016C19.8079 31.024 19.9919 30.016 19.9919 28.992C19.9919 27.36 19.5839 25.84 18.7679 24.432C17.9839 23.072 16.9119 22 15.5519 21.216C14.1599 20.4 12.6439 19.992 11.0039 19.992C9.36394 19.992 7.83994 20.4 6.43194 21.216C5.08794 22.016 4.01594 23.088 3.21594 24.432C2.39994 25.84 1.99194 27.364 1.99194 29.004C1.99194 30.644 2.39994 32.16 3.21594 33.552C3.99994 34.912 5.07194 35.984 6.43194 36.768C7.83994 37.584 9.35994 37.992 10.9919 37.992C12.0479 37.992 13.0599 37.82 14.0279 37.476C14.9959 37.132 15.8559 36.64 16.6079 36L20.3039 39.696C20.3999 39.792 20.5119 39.868 20.6399 39.924C20.7679 39.98 20.8879 40.008 20.9999 40.008C21.1119 40.008 21.2319 39.98 21.3599 39.924C21.4879 39.868 21.5999 39.792 21.6959 39.696C21.9039 39.504 22.0079 39.276 22.0079 39.012C22.0079 38.748 21.9039 38.512 21.6959 38.304ZM4.00794 28.992C4.00794 27.712 4.31994 26.536 4.94394 25.464C5.56794 24.408 6.40794 23.568 7.46394 22.944C8.53594 22.32 9.71194 22.008 10.9919 22.008C12.2719 22.008 13.4559 22.32 14.5439 22.944C15.5999 23.568 16.4399 24.412 17.0639 25.476C17.6879 26.54 17.9999 27.712 17.9999 28.992C17.9999 29.92 17.8199 30.816 17.4599 31.68C17.0999 32.544 16.6159 33.28 16.0079 33.888C15.3679 34.544 14.6279 35.044 13.7879 35.388C12.9479 35.732 12.0559 35.904 11.1119 35.904C9.79994 35.936 8.59194 35.64 7.48794 35.016C6.41594 34.424 5.56794 33.592 4.94394 32.52C4.31994 31.448 4.00794 30.272 4.00794 28.992Z" fill="#3E445A"/>
</svg>
