<svg width="42" height="42" viewBox="0 0 42 42" fill="none" xmlns="http://www.w3.org/2000/svg">
<rect x="0.5" y="0.5" width="41" height="41" rx="20.5" stroke="#E2E4EC"/>
<g clip-path="url(#clip0_1_1960)">
<path d="M28.56 27.03C28.392 26.106 28.08 25.242 27.624 24.438C27.168 23.634 26.58 22.944 25.86 22.368C25.236 21.828 24.504 21.396 23.664 21.072C24.24 20.628 24.696 20.079 25.032 19.425C25.368 18.771 25.536 18.072 25.536 17.328C25.536 16.464 25.326 15.669 24.906 14.943C24.486 14.217 23.913 13.644 23.187 13.224C22.461 12.804 21.666 12.594 20.802 12.594C19.938 12.594 19.143 12.804 18.417 13.224C17.691 13.644 17.118 14.217 16.698 14.943C16.278 15.669 16.068 16.464 16.068 17.328C16.068 18.072 16.236 18.771 16.572 19.425C16.908 20.079 17.364 20.628 17.94 21.072C17.136 21.408 16.41 21.84 15.762 22.368C15.066 22.944 14.484 23.628 14.016 24.42C13.548 25.212 13.23 26.052 13.062 26.94L12.792 28.362L14.34 28.668L14.628 27.264C14.76 26.532 15.009 25.854 15.375 25.23C15.741 24.606 16.212 24.057 16.788 23.583C17.364 23.109 17.997 22.749 18.687 22.503C19.377 22.257 20.082 22.134 20.802 22.134C21.522 22.134 22.236 22.26 22.944 22.512C23.652 22.764 24.282 23.118 24.834 23.574C25.41 24.054 25.884 24.615 26.256 25.257C26.628 25.899 26.874 26.58 26.994 27.3L27.264 28.704L28.794 28.398L28.56 27.03ZM20.802 14.16C21.378 14.16 21.909 14.301 22.395 14.583C22.881 14.865 23.265 15.249 23.547 15.735C23.829 16.221 23.97 16.752 23.97 17.328C23.97 17.904 23.829 18.435 23.547 18.921C23.265 19.407 22.881 19.791 22.395 20.073C21.909 20.355 21.378 20.496 20.802 20.496C20.226 20.496 19.695 20.355 19.209 20.073C18.723 19.791 18.339 19.407 18.057 18.921C17.775 18.435 17.634 17.904 17.634 17.328C17.634 16.752 17.775 16.221 18.057 15.735C18.339 15.249 18.723 14.865 19.209 14.583C19.695 14.301 20.226 14.16 20.802 14.16Z" fill="#3E445A"/>
</g>
<defs>
<clipPath id="clip0_1_1960">
<rect width="18" height="18" fill="white" transform="matrix(1 0 0 -1 12 30)"/>
</clipPath>
</defs>
</svg>
