<svg width="20" height="20" viewBox="0 0 20 20" fill="none" xmlns="http://www.w3.org/2000/svg">
<path d="M19.72 9.9L15.14 8.36C15.0467 8.32 14.9533 8.32 14.86 8.36L10.28 9.9C10.2 9.92667 10.1333 9.97667 10.08 10.05C10.0267 10.1233 10 10.2067 10 10.3V13.78C10 14.9933 10.4067 16.1267 11.22 17.18C11.7933 17.94 12.5533 18.6267 13.5 19.24C14.02 19.5733 14.4667 19.8133 14.84 19.96C14.88 19.9867 14.9367 20 15.01 20C15.0833 20 15.1333 19.9933 15.16 19.98L15.2 19.96C16.1733 19.5067 17.04 18.94 17.8 18.26C19.2667 16.94 20 15.4467 20 13.78V10.3C20 10.2067 19.9733 10.1233 19.92 10.05C19.8667 9.97667 19.8 9.92667 19.72 9.9ZM19.16 13.78C19.16 14.7267 18.86 15.6267 18.26 16.48C17.8067 17.12 17.2 17.7133 16.44 18.26C15.96 18.6067 15.48 18.8933 15 19.12C14.1067 18.68 13.3133 18.14 12.62 17.5C11.4333 16.3667 10.84 15.1267 10.84 13.78V10.6L15 9.2L19.16 10.6V13.78ZM14.62 14.8L17.2 12.2C17.28 12.12 17.3767 12.08 17.49 12.08C17.6033 12.08 17.7067 12.12 17.8 12.2C17.8933 12.28 17.9367 12.38 17.93 12.5C17.9233 12.62 17.88 12.72 17.8 12.8L14.88 15.72C14.8 15.8 14.7 15.84 14.58 15.84H14.56C14.4267 15.8133 14.3267 15.76 14.26 15.68L12.6 13.6C12.52 13.5067 12.4867 13.4033 12.5 13.29C12.5133 13.1767 12.5667 13.0833 12.66 13.01C12.7533 12.9367 12.8567 12.9067 12.97 12.92C13.0833 12.9333 13.1733 12.9867 13.24 13.08L14.62 14.8ZM10.98 19.54C10.98 19.66 10.94 19.7633 10.86 19.85C10.78 19.9367 10.68 19.9833 10.56 19.99C10.44 19.9967 10.2533 20 10 20H7.92C6.70667 19.9867 5.66333 19.5533 4.79 18.7C3.91667 17.8467 3.16 16.52 2.52 14.72C2.2 13.8267 1.86 13.1067 1.5 12.56C1.27333 12.24 0.993333 11.9267 0.66 11.62C0.446667 11.4333 0.293333 11.2733 0.2 11.14C0.0666667 10.9267 0 10.6867 0 10.42C0 10.1533 0.1 9.91333 0.3 9.7C0.646667 9.34 1.24 9.16 2.08 9.16C2.65333 9.16 3.22 9.33333 3.78 9.68C4.20667 9.96 4.61333 10.3267 5 10.78V2.5C5 2.03333 5.16333 1.64 5.49 1.32C5.81667 1 6.20667 0.84 6.66 0.84C6.99333 0.84 7.30667 0.933334 7.6 1.12C7.70667 0.786667 7.90333 0.516666 8.19 0.310001C8.47667 0.103334 8.8 0 9.16 0C9.52 0 9.84667 0.103334 10.14 0.310001C10.4333 0.516666 10.6333 0.786667 10.74 1.12C11.0067 0.933334 11.3133 0.84 11.66 0.84C12.1267 0.84 12.5233 1.00333 12.85 1.33C13.1767 1.65667 13.34 2.04667 13.34 2.5V3.56C13.5933 3.41333 13.8667 3.34 14.16 3.34C14.6267 3.34 15.0233 3.50333 15.35 3.83C15.6767 4.15667 15.84 4.54667 15.84 5V6.3C15.84 6.40667 15.7967 6.5 15.71 6.58C15.6233 6.66 15.5267 6.7 15.42 6.7C15.3133 6.7 15.2167 6.66 15.13 6.58C15.0433 6.5 15 6.40667 15 6.3V5C15 4.77333 14.9167 4.57667 14.75 4.41C14.5833 4.24333 14.3867 4.16 14.16 4.16C13.9333 4.16 13.74 4.24333 13.58 4.41C13.42 4.57667 13.34 4.77333 13.34 5V6.82C13.34 6.92667 13.2967 7.02333 13.21 7.11C13.1233 7.19667 13.0267 7.24 12.92 7.24C12.8133 7.24 12.7167 7.19667 12.63 7.11C12.5433 7.02333 12.5 6.92667 12.5 6.82V2.5C12.5 2.27333 12.4167 2.07667 12.25 1.91C12.0833 1.74333 11.8867 1.66 11.66 1.66C11.4333 1.66 11.24 1.74333 11.08 1.91C10.92 2.07667 10.84 2.27333 10.84 2.5V7.66C10.84 7.76667 10.7967 7.86333 10.71 7.95C10.6233 8.03667 10.5267 8.08 10.42 8.08C10.3133 8.08 10.2167 8.03667 10.13 7.95C10.0433 7.86333 10 7.76667 10 7.66V1.66C10 1.43333 9.91667 1.24 9.75 1.08C9.58333 0.92 9.38667 0.84 9.16 0.84C8.93333 0.84 8.74 0.92 8.58 1.08C8.42 1.24 8.34 1.43333 8.34 1.66V9.58C8.34 9.7 8.29667 9.8 8.21 9.88C8.12333 9.96 8.02667 10 7.92 10C7.81333 10 7.71667 9.96 7.63 9.88C7.54333 9.8 7.5 9.7 7.5 9.58V2.5C7.5 2.27333 7.41667 2.07667 7.25 1.91C7.08333 1.74333 6.88667 1.66 6.66 1.66C6.43333 1.66 6.24 1.74333 6.08 1.91C5.92 2.07667 5.84 2.27333 5.84 2.5V12.08C5.84 12.1733 5.81 12.2567 5.75 12.33C5.69 12.4033 5.61333 12.4533 5.52 12.48C5.42667 12.5067 5.33667 12.5 5.25 12.46C5.16333 12.42 5.1 12.36 5.06 12.28L5.04 12.24C4.76 11.7867 4.44667 11.38 4.1 11.02C3.43333 10.34 2.76 10 2.08 10C1.66667 10 1.34 10.0533 1.1 10.16C0.926667 10.24 0.84 10.33 0.84 10.43C0.84 10.53 0.863333 10.6167 0.91 10.69C0.956667 10.7633 1.06 10.8733 1.22 11.02C1.59333 11.3667 1.9 11.7133 2.14 12.06C2.58 12.6733 2.96667 13.4667 3.3 14.44C3.88667 16.0533 4.55333 17.2433 5.3 18.01C6.04667 18.7767 6.92 19.16 7.92 19.16H10.54C10.6467 19.1467 10.7433 19.1767 10.83 19.25C10.9167 19.3233 10.9667 19.42 10.98 19.54Z" fill="#3E445A"/>
</svg>
